<svg id="Titre" xmlns="http://www.w3.org/2000/svg" width="64.000000px" height="64.000000px" viewBox="0 0 494.3 494.3">
    <title>ICON_TOOLBAR_MAXIMUS_FSECONOMY_PANEL</title>
    <g id="HIGHLIGHT">
 <g>
        <g>
            <path d="M416.163,313.3V136.2c0-5.5-4.5-9.3-10-9.3h-38.7c-5.5,0-10.3,3.8-10.3,9.3V296c-6.4,0.2-12.8,1-19,2.5V188.4
			c0-5.5-4.7-9.5-10.2-9.5h-38.7c-5.5,0-10.1,3.9-10.1,9.5v149.3c-11.9,16.7-18.3,36.8-18.2,57.4c0,54.8,44.4,99.2,99.1,99.2
			c54.8,0,99.2-44.4,99.2-99.1C459.263,362.4,443.163,331.8,416.163,313.3z M377.163,146.9h19v155.8c-6.1-2.4-12.5-4.2-19-5.2V146.9
			z M299.163,198.9h19v106.5c-6.7,3.1-13.1,6.9-19,11.4V198.9z M428.263,435.4c-14.3,24.1-40.2,38.8-68.1,38.8
			c-43.7,0-79.1-35.5-79.1-79.1c0-32,19.3-60.9,48.9-73.1c1.2-0.2,2.3-0.7,3.3-1.3c8.6-3.2,17.8-4.8,27-4.8c2.1,0,4.1,0.1,6.2,0.3
			h0.1c12,0.9,23.7,4.6,34,10.8C438.162,349.3,450.563,397.8,428.263,435.4z"/>
        </g>
    </g>
    <g>
        <g>
            <path d="M382.662,429.5c-12.3,4.6-26.1,2.5-36.4-5.6h36.4c5.5,0,10-4.5,10-10s-4.5-10-10-10h-49.2c-0.5-2-0.8-4-1-6h55.4
			c5.6,0,10.1-4.5,10.1-10s-4.5-10-10-10h-51.2c1.8-3.2,3.9-6.2,6.5-8.9c10.3-10.3,25.7-13.6,39.4-8.4c5.2,2,11-0.6,12.9-5.8
			c1.9-5.2-0.6-11-5.8-12.9c-21-8-44.8-3-60.7,13c-6.3,6.5-11.1,14.4-13.9,23h-0.2c-5.5,0-10,4.4-10,9.9c0,4.6,3.1,8.6,7.5,9.7
			c0.1,2.2,0.3,4.4,0.7,6.5c-5.4,1-9,6.2-8,11.7c0.9,4.7,5,8.2,9.8,8.2h5.3c2.5,4.1,5.4,8,8.8,11.4c15.9,15.9,39.7,20.9,60.7,12.9
			c5.2-2,7.7-7.7,5.8-12.9C393.563,430.1,387.862,427.6,382.662,429.5z"/>
        </g>
    </g>
    <g>
        <g>
            <path d="M171.163,258.9h-39c-5.5,0-10,4.5-10,10v157c0,5.5,4.5,10,10,10h39c5.5,0,10-4.5,10-10v-157
			C181.163,263.4,176.663,258.9,171.163,258.9z M161.163,416.9h-19v-138h19V416.9z"/>
        </g>
    </g>
    <g>
        <g>
            <path d="M250.163,235.9h-39c-5.5,0-10,4.5-10,10v181c0,5.5,4.5,10,10,10h39c5.5,0,10-4.5,10-10v-181
			C260.163,240.4,255.663,235.9,250.163,235.9z M240.163,416.9h-19v-161h19V416.9z"/>
        </g>
    </g>
    <g>
        <g>
            <path d="M92.163,344.9h-39c-5.5,0-10,4.5-10,10v71c0,5.5,4.5,10,10,10h39c5.5,0,10-4.5,10-10v-71
			C102.163,349.4,97.663,344.9,92.163,344.9z M82.163,416.9h-19v-52h19V416.9z"/>
        </g>
    </g>
    <g>
        <g>
            <path d="M414.663,0l-68.4,0.1c-5.5-0.1-10,4.4-10.1,9.9s4.4,10,9.9,10.1c0.1,0,0.1,0,0.2,0l44.3-0.1l-108.5,108.1l-37.9-37.6
			c-1.9-1.8-4.5-2.7-7.1-2.6c-2.6-0.1-5.2,0.8-7.1,2.6l-192,192c-3.9,3.9-3.9,10.2,0,14c1.9,1.9,4.4,2.9,7.1,2.9s5.2-1,7.1-2.9
			l185-185l37.9,38.2c1.8,2,4.4,3.1,7.1,3.2c2.7-0.1,5.2-1.3,7.1-3.2l115.4-115.5l-0.1,44.5c0,5.6,4.4,10.1,10,10.3
			c5.6-0.1,10-4.7,10-10.3l0.1-68.6C424.663,4.6,420.163,0,414.663,0z"/>
        </g>
    </g>
    <g></g>
    <g></g>
    <g></g>
    <g></g>
    <g></g>
    <g></g>
    <g></g>
    <g></g>
    <g></g>
    <g></g>
    <g></g>
    <g></g>
    <g></g>
    <g></g>
    <g></g>
    </g>
</svg>
